<svg width="311" height="103" viewBox="0 0 311 103" fill="none" xmlns="http://www.w3.org/2000/svg">
<g clip-path="url(#clip0_20_91)">
<path d="M37.8896 49.9343C34.9734 49.7223 31.8915 51.2703 29.316 52.8394C29.2617 51.6402 29.2959 50.4384 29.4183 49.2444C30.6452 35.9492 38.9398 25.8135 48.5645 17.6497C49.4714 16.8864 48.5851 15.1052 47.4618 15.7414C40.094 19.9929 33.9213 27.8065 30.2529 35.5039C28.1929 39.8303 25.7197 48.1528 26.5545 54.5887C24.524 55.8929 22.1027 57.6316 21.5249 59.8051C21.226 60.9502 22.5245 61.8724 23.3385 60.8758C24.3587 59.6248 25.7086 58.4691 27.2027 57.4406C28.2848 60.6002 30.5518 62.912 34.653 63.346C42.2785 64.173 45.8542 50.5174 37.8888 49.9341L37.8896 49.9343ZM39.2699 56.8261C38.5588 60.6854 34.2926 61.067 31.799 58.8193C30.908 58.0013 30.2372 56.9605 29.8514 55.7976C31.215 55.044 32.6227 54.3782 34.0665 53.8041C37.024 52.6272 40.105 52.2879 39.2704 56.8363L39.2699 56.8261Z" fill="white"/>
<path d="M97.1938 18.5306C89.6197 19.3045 81.7881 22.1883 74.5133 25.1146C75.4074 20.9909 76.0682 16.8171 76.4921 12.6145C77.4403 2.64835 69.052 -1.27438 60.8186 0.358263C49.9876 2.51069 39.8683 8.1085 32.2943 16.3466C31.5419 17.1629 32.8816 18.5413 33.6648 17.7355C40.8781 10.3351 50.4101 5.23533 60.4062 3.19969C63.5285 2.56365 66.5891 2.02282 69.5466 3.62373C76.4095 7.34514 73.0502 16.7068 71.6488 22.8137C71.3603 24.0965 71.051 25.3687 70.7317 26.641C70.5153 26.7259 70.2989 26.8213 70.0825 26.906C61.309 30.4926 52.8432 34.8299 44.774 39.8724C43.7744 40.498 44.7946 42.2897 45.8354 41.7066C53.6223 37.3452 61.6496 33.4547 69.8764 30.0547C67.3804 39.7041 64.3773 49.2071 60.8804 58.5216C58.9123 63.7697 56.7894 68.9647 54.4709 74.075C52.5542 78.2946 49.7411 82.5037 48.4728 86.978C48.0606 88.4305 49.6269 89.321 50.6369 88.2502C54.3671 84.3273 56.4796 78.1038 58.6333 73.1845C61.4671 66.696 63.9816 60.059 66.2692 53.3478C68.9897 45.3749 71.7308 37.0098 73.7499 28.5599C81.6949 25.6655 89.9696 23.8631 97.8425 20.8414C99.1205 20.3537 98.502 18.4029 97.2139 18.5301L97.1938 18.5306Z" fill="white"/>
<path d="M9.49997 60.2186C9.60221 58.4374 9.69576 56.6667 9.77824 54.9175C10.108 48.3229 10.2317 41.7071 10.0255 35.1013C9.93279 31.8888 9.75762 28.6654 9.44834 25.4638C9.2016 22.867 9.17024 19.5908 7.8924 17.2478C6.16111 14.0777 3.56418 15.9755 2.34836 18.4459C-0.279235 23.8424 -0.238679 30.4794 0.277298 36.3211C1.07069 45.1846 3.29665 53.9738 6.97546 62.0315C6.6045 70.2482 6.0069 78.7086 3.93549 86.4908C3.66762 87.5079 5.11024 88.1766 5.43997 87.1268C7.54222 80.4793 8.51079 73.3546 9.07754 66.2616C10.5778 69.036 12.2686 71.6967 14.1371 74.2232C21.9172 84.677 32.0263 96.6576 43.8355 102.33C45.0927 102.934 46.2364 100.941 45.0624 100.135C30.7072 90.3607 17.1463 76.4506 9.48975 60.2186H9.49997ZM2.61641 29.8538C2.71865 27.1397 3.06985 24.4361 3.9251 21.8492C4.17235 21.107 4.51247 19.5803 5.11007 19.1031C6.20235 18.2337 6.24359 21.425 6.38809 22.4852C7.89257 33.1824 7.70717 44.2197 7.26395 54.9803C6.98569 54.2381 6.70742 53.496 6.44994 52.7431C3.94503 45.4064 2.30747 37.6455 2.60618 29.8423L2.61641 29.8538Z" fill="white"/>
<path d="M17.0018 11.2361C22.4736 14.4169 23.3708 19.262 22.8652 25.2733C22.7725 26.4183 24.4624 27.0228 24.8437 25.8247C26.9768 19.05 23.9885 12.3281 17.6923 9.50808C16.5896 9.00969 16.0023 10.6637 16.9916 11.2363L17.0018 11.2361Z" fill="white"/>
</g>
<g clip-path="url(#clip1_20_91)">
<mask id="mask0_20_91" style="mask-type:luminance" maskUnits="userSpaceOnUse" x="115" y="22" width="196" height="58">
<path d="M310.272 22H115.132V80H310.272V22Z" fill="white"/>
</mask>
<g mask="url(#mask0_20_91)">
<path d="M115.132 54.3882V31.362C115.132 30.6264 115.502 30.2029 116.197 30.2029H117.152C117.825 30.2029 118.216 30.6264 118.216 31.362V52.7387H129.139C129.812 52.7387 130.268 53.1399 130.268 53.8309V54.4104C130.268 55.1015 129.812 55.5027 129.139 55.5027H116.197C115.502 55.5027 115.132 55.1015 115.132 54.4104" fill="white"/>
<path d="M131.137 37.269C130.833 37.7371 130.377 37.8932 130.03 37.6257L129.878 37.5142C129.53 37.2467 129.617 36.8009 129.834 36.422C130.442 35.5304 131.658 33.9031 131.723 32.9224C130.638 32.6772 129.834 31.7187 129.834 30.5819C129.834 29.2667 130.942 28.2191 132.223 28.2191C133.634 28.2191 134.568 29.2221 134.612 30.7379C134.655 32.4097 134.112 33.3459 131.115 37.269" fill="white"/>
<path d="M143.971 27.2606C143.559 26.5918 143.819 26.1683 144.384 25.8117L149.704 22.2452C150.421 21.7771 150.92 22.0223 151.224 22.5127L151.746 23.3374C152.158 24.0284 151.854 24.4297 151.246 24.7417L145.643 27.6172C144.927 27.9739 144.536 28.0853 144.21 27.5726L143.971 27.2606ZM139.585 54.3213V31.362C139.585 30.6264 139.997 30.2029 140.714 30.2029H155.003C155.676 30.2029 156.11 30.5819 156.11 31.2952V31.8747C156.11 32.588 155.698 32.9669 155.003 32.9669H142.647V41.3705H152.245C152.94 41.3705 153.374 41.7494 153.374 42.4627V42.9977C153.374 43.7333 152.918 44.0899 152.245 44.0899H142.647V52.7387H155.003C155.676 52.7387 156.132 53.1176 156.132 53.8309V54.4104C156.132 55.1015 155.676 55.5027 155.003 55.5027H140.714C139.997 55.5027 139.585 55.0346 139.585 54.3436" fill="white"/>
<path d="M166.23 54.3213V32.9447H159.216C158.543 32.9447 158.108 32.5657 158.108 31.8524V31.2729C158.108 30.5819 158.521 30.1806 159.216 30.1806H176.306C177.023 30.1806 177.436 30.5596 177.436 31.2729V31.8524C177.436 32.5657 177.023 32.9447 176.306 32.9447H169.292V54.3213C169.292 55.0123 168.945 55.4804 168.271 55.4804H167.294C166.621 55.4804 166.23 55.0123 166.23 54.3213Z" fill="white"/>
<path d="M193.223 47.2329L187.838 34.9285L182.409 47.2329H193.223ZM198.978 55.4804H197.501C196.828 55.4804 196.676 55.0792 196.328 54.3881L194.352 49.8632H181.279L179.281 54.3881C178.977 55.0792 178.825 55.4804 178.152 55.4804H176.741C176.067 55.4804 175.763 55.0792 176.089 54.3881L186.86 30.7379C187.012 30.3366 187.273 30.0023 187.772 30.0023H188.033C188.532 30.0023 188.793 30.3589 188.967 30.7379L199.629 54.3881C199.977 55.0792 199.673 55.4804 198.978 55.4804Z" fill="white"/>
<path d="M219.065 48.2583C219.065 45.5388 216.937 43.711 213.723 43.711H207.1V52.7832H213.05C217.002 52.7832 219.087 51.2675 219.087 48.2805M207.1 32.8778V41.2367H212.702C215.895 41.2367 217.675 39.721 217.675 37.0684C217.675 34.4158 215.981 32.8778 212.702 32.8778H207.1ZM222.17 48.4812C222.17 52.6941 218.566 55.4804 213.158 55.4804H205.167C204.45 55.4804 204.038 55.0123 204.038 54.3213V31.362C204.038 30.6264 204.45 30.2029 205.167 30.2029H212.529C217.914 30.2029 220.802 32.5434 220.802 36.9347C220.802 39.4758 219.391 41.1699 217.61 42.1952C220.346 43.176 222.192 45.4274 222.192 48.5035" fill="white"/>
<path d="M227.513 54.3882V31.362C227.513 30.6264 227.882 30.2029 228.577 30.2029H229.51C230.205 30.2029 230.575 30.6264 230.575 31.362V52.7387H241.498C242.171 52.7387 242.627 53.1399 242.627 53.8309V54.4104C242.627 55.1015 242.171 55.5027 241.498 55.5027H228.577C227.882 55.5027 227.513 55.1015 227.513 54.4104" fill="white"/>
<path d="M246.775 54.3213V31.362C246.775 30.6264 247.187 30.2029 247.904 30.2029H262.193C262.888 30.2029 263.301 30.5819 263.301 31.2951V31.8747C263.301 32.588 262.888 32.9669 262.193 32.9669H249.837V41.3705H259.435C260.13 41.3705 260.564 41.7494 260.564 42.4627V42.9977C260.564 43.7333 260.108 44.0899 259.435 44.0899H249.837V52.7387H262.193C262.888 52.7387 263.322 53.1176 263.322 53.8309V54.4104C263.322 55.1015 262.866 55.5027 262.193 55.5027H247.904C247.187 55.5027 246.775 55.0346 246.775 54.3436" fill="white"/>
<path d="M290.858 47.3444C290.858 43.9116 288.274 41.4374 284.821 41.4374C281.368 41.4374 278.784 43.9339 278.784 47.3444C278.784 50.7548 281.325 53.2291 284.821 53.2291C288.317 53.2291 290.858 50.7102 290.858 47.3444ZM275.722 47.0769C275.635 40.9693 279.587 35.9762 284.626 30.1138C285.19 29.4896 286.059 29.3782 286.515 29.8017L287.014 30.2252C287.536 30.6933 287.536 31.3175 286.971 31.9416C284.626 34.505 281.542 38.2944 280.217 40.6126H280.261C281.52 39.2529 283.605 38.6733 285.407 38.6733C290.228 38.6733 293.898 42.2844 293.898 47.3221C293.898 52.3597 290.076 55.9708 284.799 55.9708C279.522 55.9708 275.809 52.538 275.7 47.0992" fill="white"/>
<path d="M310.25 31.0054V31.3175C310.25 31.5849 310.164 31.8524 309.99 32.2982L300.587 54.4105C300.283 55.146 299.935 55.5027 299.219 55.5027H298.155C297.503 55.5027 297.025 54.99 297.351 54.2098L306.363 33.0338H295.071C294.398 33.0338 294.007 32.6772 294.007 31.9416V31.2729C294.007 30.5819 294.398 30.1806 295.071 30.1806H309.165C309.838 30.1806 310.229 30.5373 310.229 31.0054" fill="white"/>
<path d="M120.236 77.5926C122.559 77.5926 124.123 76.01 124.123 73.4912C124.123 70.9723 122.559 69.3897 120.236 69.3897H117.673V77.5926H120.236ZM115.132 78.9969V67.9854C115.132 67.495 115.415 67.2275 115.871 67.2275H120.301C124.21 67.2275 126.707 69.724 126.707 73.4689C126.707 77.2137 124.21 79.7548 120.301 79.7548H115.871C115.393 79.7548 115.132 79.465 115.132 78.9969Z" fill="white"/>
<path d="M135.958 76.545V75.8317C135.48 75.6088 134.655 75.2744 133.808 75.2744C132.635 75.2744 131.832 75.8985 131.832 76.8125C131.832 77.6818 132.57 78.2613 133.678 78.2613C134.894 78.2613 135.98 77.4812 135.98 76.545M138.238 73.9147V78.9969C138.238 79.4873 137.999 79.7548 137.543 79.7548H136.935C136.479 79.7548 136.219 79.465 136.219 78.9969V78.6626C135.415 79.465 134.329 80 133.113 80C130.92 80 129.443 78.7517 129.443 76.9016C129.443 74.94 131.05 73.6249 133.461 73.6249C134.351 73.6249 135.176 73.8478 135.893 74.1376V73.6249C135.893 72.5104 135.111 71.8194 133.808 71.8194C132.896 71.8194 132.071 72.1092 131.398 72.5773C131.029 72.8002 130.703 72.7333 130.464 72.3098L130.29 71.9977C130.008 71.5073 130.16 71.1507 130.507 70.9278C131.593 70.1699 132.809 69.8801 133.982 69.8801C136.349 69.8801 138.216 71.0838 138.216 73.9147" fill="white"/>
<path d="M141.713 78.5511C141.365 78.2168 141.279 77.9047 141.669 77.4812L141.995 77.1022C142.343 76.701 142.69 76.7456 143.038 77.0576C143.667 77.6372 144.514 78.0384 145.405 78.0384C146.208 78.0384 146.729 77.6818 146.729 77.1245C146.729 76.3666 145.947 76.0991 145.101 75.7648C143.559 75.2298 141.93 74.628 141.93 72.7779C141.93 71.0169 143.342 69.9024 145.491 69.9024C146.686 69.9024 147.945 70.3259 148.684 71.0392C149.031 71.3513 149.118 71.6633 148.727 72.1314L148.467 72.4658C148.184 72.8001 147.815 72.8447 147.424 72.5772C146.794 72.0646 146.23 71.8194 145.491 71.8194C144.753 71.8194 144.297 72.1537 144.297 72.6218C144.297 73.246 145.122 73.4912 146.23 73.937C147.815 74.5834 149.096 75.2744 149.096 77.0799C149.096 78.8855 147.598 80.0223 145.405 80.0223C143.928 80.0223 142.473 79.4204 141.691 78.5511" fill="white"/>
<path d="M157.739 73.4912C157.739 69.7909 160.54 67.0046 164.189 67.0046C165.774 67.0046 167.12 67.5173 168.228 68.4089C168.597 68.721 168.597 69.1668 168.25 69.4789L167.663 70.0361C167.316 70.3705 166.947 70.3259 166.556 70.0584C165.883 69.5903 165.101 69.3005 164.254 69.3005C162.017 69.3005 160.302 71.1061 160.302 73.4912C160.302 75.9877 162.061 77.7264 164.319 77.7264C165.6 77.7264 166.339 77.2583 166.86 76.9685V74.6503H164.58C164.102 74.6503 163.841 74.4051 163.841 73.9147V73.4243C163.841 72.9562 164.102 72.6887 164.58 72.6887H168.402C168.879 72.6887 169.14 72.9785 169.14 73.4466V77.6372C169.14 78.1499 168.879 78.4174 168.423 78.7294C167.728 79.153 166.382 79.9777 164.167 79.9777C160.54 79.9777 157.739 77.1691 157.739 73.4912Z" fill="white"/>
<path d="M178.977 70.8163L178.738 71.7748C178.608 72.2652 178.304 72.3098 178 72.2206C177.74 72.1314 177.436 72.0646 177.175 72.0646C175.937 72.0646 175.242 73.0231 175.242 74.4274V79.0192C175.242 79.4873 175.003 79.7771 174.547 79.7771H173.461C173.005 79.7771 172.745 79.4873 172.745 79.0192V70.7717C172.745 70.3036 173.005 70.0361 173.461 70.0361H174.178C174.634 70.0361 174.895 70.3036 174.895 70.7717V71.3735C175.503 70.4596 176.328 69.9024 177.414 69.9024C177.892 69.9024 178.217 69.9692 178.586 70.0807C178.869 70.1699 179.129 70.3259 178.999 70.8609" fill="white"/>
<path d="M186.535 66.7817C186.535 65.8678 187.251 65.1768 188.12 65.1768C188.988 65.1768 189.683 65.8901 189.683 66.7817C189.683 67.6733 188.967 68.4089 188.12 68.4089C187.273 68.4089 186.535 67.6733 186.535 66.7817ZM182.474 66.7817C182.474 65.8678 183.19 65.1768 184.059 65.1768C184.928 65.1768 185.644 65.8901 185.644 66.7817C185.644 67.6733 184.949 68.4089 184.059 68.4089C183.169 68.4089 182.474 67.6733 182.474 66.7817ZM190.487 70.7717V79.0192C190.487 79.4873 190.226 79.7771 189.77 79.7771H189.097C188.641 79.7771 188.38 79.4873 188.38 79.0192V78.5065C187.794 79.4204 186.86 80.0223 185.514 80.0223C183.212 80.0223 181.714 78.4174 181.714 76.0546V70.7717C181.714 70.3036 181.952 70.0361 182.409 70.0361H183.494C183.929 70.0361 184.211 70.3036 184.211 70.7717V75.7648C184.211 76.9908 184.928 77.8155 186.057 77.8155C187.186 77.8155 187.99 76.9908 187.99 75.7202V70.794C187.99 70.3259 188.228 70.0584 188.684 70.0584H189.77C190.226 70.0584 190.487 70.3259 190.487 70.794" fill="white"/>
<path d="M203.495 74.0038V79.0192C203.495 79.4873 203.256 79.7771 202.8 79.7771H201.714C201.258 79.7771 200.997 79.4873 200.997 79.0192V74.2045C200.997 72.9339 200.259 72.0869 199.021 72.0869C197.783 72.0869 196.98 72.9339 196.98 74.2045V79.0192C196.98 79.4873 196.741 79.7771 196.285 79.7771H195.199C194.743 79.7771 194.483 79.4873 194.483 79.0192V70.7717C194.483 70.3036 194.743 70.0361 195.199 70.0361H195.916C196.372 70.0361 196.633 70.3036 196.633 70.7717V71.4181C197.262 70.5042 198.24 69.8801 199.629 69.8801C201.953 69.8801 203.495 71.5296 203.495 74.0038Z" fill="white"/>
<path d="M209.271 73.937H214.07C213.984 73.3351 213.745 72.8447 213.397 72.4658C212.985 71.9977 212.377 71.7525 211.66 71.7525C210.357 71.7525 209.445 72.5995 209.249 73.937M212.138 78.0607C212.854 78.0607 213.701 77.8601 214.526 77.1914C214.874 76.9239 215.134 76.857 215.439 77.1914L215.895 77.6595C216.264 78.0161 216.112 78.3059 215.895 78.5511C214.939 79.5542 213.267 80.0223 211.942 80.0223C209.119 80.0223 206.839 78.0384 206.839 74.9623C206.839 72.0646 208.924 69.9024 211.747 69.9024C213.18 69.9024 214.374 70.4151 215.178 71.2621C216.068 72.1537 216.546 73.4243 216.546 74.7617C216.546 75.2967 216.329 75.5419 215.786 75.5419H209.293C209.445 77.1914 210.726 78.083 212.159 78.083" fill="white"/>
<path d="M225.08 73.4912C225.08 69.7686 227.947 67.0046 231.617 67.0046C233.485 67.0046 235.135 67.7625 236.286 68.9885C236.612 69.3451 236.612 69.7463 236.242 70.0361L235.569 70.638C235.222 70.9277 234.896 70.8832 234.527 70.5934C233.767 69.8355 232.768 69.3674 231.617 69.3674C229.38 69.3674 227.643 71.1061 227.643 73.5134C227.643 75.9208 229.402 77.6595 231.617 77.6595C232.768 77.6595 233.767 77.1914 234.527 76.4335C234.874 76.0992 235.2 76.0769 235.569 76.3666L236.242 76.9462C236.59 77.2583 236.612 77.6595 236.286 77.9938C235.135 79.2421 233.485 80 231.595 80C227.925 80 225.059 77.2137 225.059 73.5134" fill="white"/>
<path d="M245.667 76.545V75.8317C245.189 75.6088 244.364 75.2744 243.517 75.2744C242.345 75.2744 241.541 75.8985 241.541 76.8125C241.541 77.6818 242.279 78.2613 243.387 78.2613C244.603 78.2613 245.689 77.4812 245.689 76.545M247.926 73.9147V78.9969C247.926 79.4873 247.687 79.7548 247.231 79.7548H246.623C246.167 79.7548 245.906 79.465 245.906 78.9969V78.6626C245.103 79.465 244.017 80 242.801 80C240.607 80 239.131 78.7517 239.131 76.9016C239.131 74.94 240.738 73.6249 243.148 73.6249C244.038 73.6249 244.864 73.8478 245.58 74.1376V73.6249C245.58 72.5104 244.798 71.8194 243.496 71.8194C242.583 71.8194 241.737 72.1092 241.085 72.5773C240.716 72.8002 240.39 72.7333 240.151 72.3098L239.978 71.9977C239.695 71.5073 239.847 71.1507 240.195 70.9278C241.281 70.1699 242.497 69.8801 243.669 69.8801C246.036 69.8801 247.904 71.0838 247.904 73.9147" fill="white"/>
<path d="M258.328 67.1161L258.11 67.6956C257.915 68.1637 257.676 68.2083 257.263 68.0523C257.025 67.9408 256.764 67.8739 256.482 67.8739C255.656 67.8739 254.918 68.4089 254.918 69.6126V70.0138H256.916C257.372 70.0138 257.633 70.259 257.633 70.7271V71.2175C257.633 71.6856 257.372 71.9531 256.916 71.9531H254.918V78.9969C254.918 79.465 254.679 79.7548 254.223 79.7548H253.137C252.681 79.7548 252.421 79.465 252.421 78.9969V71.9531H251.53C251.074 71.9531 250.814 71.6856 250.814 71.2175V70.7271C250.814 70.259 251.074 70.0138 251.53 70.0138H252.421V69.6126C252.421 67.0046 254.31 65.8678 256.199 65.8678C256.829 65.8678 257.502 66.0015 257.958 66.2244C258.306 66.3805 258.566 66.5811 258.328 67.1161Z" fill="white"/>
<path d="M262.15 67.9854C261.932 67.6287 262.063 67.3612 262.41 67.116L265.298 65.1991C265.689 64.9093 265.95 64.9984 266.145 65.2882L266.601 66.1353C266.84 66.5365 266.71 66.7817 266.362 66.9823L263.214 68.4981C262.845 68.6764 262.562 68.6764 262.41 68.4089L262.171 67.9631L262.15 67.9854ZM261.932 73.937H266.732C266.645 73.3351 266.406 72.8447 266.058 72.4658C265.646 71.9977 265.038 71.7525 264.343 71.7525C263.04 71.7525 262.128 72.5995 261.932 73.937ZM264.799 78.0607C265.516 78.0607 266.362 77.8601 267.188 77.1914C267.535 76.9239 267.796 76.857 268.1 77.1914L268.556 77.6595C268.925 78.0161 268.773 78.3059 268.556 78.5511C267.6 79.5542 265.928 80.0223 264.603 80.0223C261.802 80.0223 259.5 78.0384 259.5 74.9623C259.5 72.0645 261.585 69.9024 264.408 69.9024C265.841 69.9024 267.036 70.415 267.839 71.2621C268.73 72.1537 269.207 73.4243 269.207 74.7617C269.207 75.2967 268.99 75.5419 268.425 75.5419H261.932C262.084 77.1914 263.366 78.083 264.799 78.083" fill="white"/>
</g>
</g>
<defs>
<clipPath id="clip0_20_91">
<rect width="98.5456" height="102.443" fill="white"/>
</clipPath>
<clipPath id="clip1_20_91">
<rect width="195.14" height="58" fill="white" transform="translate(115.132 22)"/>
</clipPath>
</defs>
</svg>
