<?xml version="1.0" standalone="no"?>
<!DOCTYPE svg PUBLIC "-//W3C//DTD SVG 20010904//EN"
 "http://www.w3.org/TR/2001/REC-SVG-20010904/DTD/svg10.dtd">
<svg version="1.0" xmlns="http://www.w3.org/2000/svg"
 width="584.000000pt" height="584.000000pt" viewBox="0 0 584.000000 584.000000"
 preserveAspectRatio="xMidYMid meet">
<metadata>
Created by potrace 1.14, written by Peter Selinger 2001-2017
</metadata>
<g transform="translate(0.000000,584.000000) scale(0.100000,-0.100000)"
fill="#000000" stroke="none">
<path d="M3689 5836 c-2 -2 -24 -6 -49 -10 -25 -3 -62 -10 -82 -15 -21 -5 -38
-7 -38 -5 0 3 -8 0 -17 -5 -10 -5 -31 -11 -48 -14 -66 -11 -329 -91 -400 -122
-16 -7 -59 -25 -95 -40 -81 -33 -320 -152 -340 -169 -8 -7 -22 -16 -30 -19
-38 -16 -215 -135 -305 -204 -118 -91 -130 -102 -255 -221 -60 -57 -112 -113
-115 -123 -8 -25 17 -65 45 -72 21 -5 57 21 125 88 18 19 135 119 160 138 5 4
37 28 70 53 275 211 667 404 1020 504 61 17 121 33 135 35 14 2 68 13 120 24
236 48 363 44 495 -17 175 -80 267 -236 266 -451 0 -118 -10 -192 -46 -356
-20 -88 -14 -65 -75 -305 -48 -192 -53 -207 -78 -217 -15 -7 -72 -31 -127 -53
-114 -48 -218 -92 -290 -125 -27 -13 -86 -39 -130 -59 -44 -20 -87 -41 -95
-46 -8 -6 -26 -15 -40 -20 -23 -10 -191 -95 -330 -166 -30 -16 -56 -32 -58
-36 -2 -5 -12 -8 -23 -8 -10 0 -19 -3 -19 -7 0 -5 -10 -13 -23 -19 -33 -16
-138 -73 -169 -92 -15 -10 -67 -41 -116 -70 -64 -37 -92 -59 -96 -76 -8 -33 2
-54 33 -71 26 -13 33 -11 112 31 46 24 113 59 149 77 36 17 67 34 70 37 10 10
257 130 268 130 7 0 12 5 12 10 0 6 4 10 9 10 5 0 51 20 102 44 151 70 306
140 424 191 61 25 124 53 140 61 42 19 157 64 166 64 4 0 -2 -28 -12 -62 -11
-35 -22 -74 -25 -88 -3 -14 -12 -50 -21 -80 -9 -30 -17 -60 -19 -66 -1 -6 -14
-51 -29 -99 -15 -49 -29 -96 -30 -105 -16 -72 -215 -664 -305 -905 -43 -116
-214 -554 -235 -600 -12 -27 -32 -75 -45 -105 -24 -57 -56 -130 -95 -215 -13
-27 -35 -77 -50 -110 -29 -67 -102 -210 -164 -325 -23 -41 -66 -127 -98 -190
-31 -63 -62 -127 -70 -142 -8 -16 -11 -28 -7 -28 3 0 2 -6 -3 -12 -18 -22 -45
-116 -41 -144 2 -15 15 -36 29 -47 42 -31 83 -11 152 73 106 129 210 315 322
580 31 74 68 160 82 190 14 30 59 134 99 230 41 96 79 184 84 195 13 29 134
339 159 410 12 33 26 69 31 80 14 31 89 247 165 470 26 77 51 149 55 160 22
52 209 650 225 720 24 106 81 302 89 307 15 10 419 139 481 154 17 4 258 73
290 83 65 20 176 53 188 55 7 2 19 5 27 8 8 3 108 36 222 73 114 37 214 75
222 84 19 21 20 60 3 82 -23 30 -50 37 -107 29 -30 -5 -73 -11 -95 -14 -73
-11 -202 -35 -260 -50 -5 -2 -28 -7 -50 -11 -50 -11 -47 -10 -65 -18 -13 -5
-99 -29 -150 -41 -8 -2 -67 -21 -130 -42 -63 -21 -119 -39 -125 -40 -19 -6
-120 -43 -262 -97 -79 -30 -144 -52 -146 -50 -2 2 4 41 14 87 10 46 20 104 24
127 3 24 9 53 12 64 3 11 7 31 8 45 2 14 5 39 8 55 3 17 8 50 12 75 4 25 8 56
10 70 4 23 8 57 20 175 21 205 -28 380 -143 507 -43 48 -139 117 -204 146 -57
26 -188 63 -199 57 -4 -3 -10 -2 -13 3 -4 7 -259 15 -267 8z"/>
<path d="M1006 5279 c-23 -34 -6 -59 80 -118 98 -68 169 -147 216 -243 56
-113 71 -188 73 -378 3 -202 0 -184 31 -198 39 -19 71 -5 84 34 23 69 38 190
34 269 -5 98 -6 106 -28 180 -53 180 -170 326 -342 428 -86 52 -125 58 -148
26z"/>
<path d="M295 4933 c-34 -17 -112 -108 -130 -150 -7 -15 -21 -48 -33 -73 -22
-49 -65 -207 -77 -280 -3 -25 -9 -65 -13 -90 -9 -56 -8 -452 1 -540 13 -134
25 -240 32 -282 8 -45 15 -86 20 -115 4 -28 22 -120 31 -158 2 -11 6 -29 8
-40 14 -69 40 -170 62 -244 14 -47 27 -90 28 -96 13 -50 43 -142 63 -195 14
-36 35 -90 46 -120 12 -30 25 -59 29 -64 4 -6 8 -15 8 -22 0 -7 15 -45 34 -86
37 -80 38 -85 21 -323 -4 -55 -9 -131 -11 -170 -9 -119 -13 -170 -14 -170 -1
0 -3 -21 -5 -47 -2 -25 -6 -61 -9 -80 -3 -18 -8 -58 -11 -88 -3 -30 -8 -66
-10 -80 -3 -14 -7 -41 -10 -60 -3 -19 -7 -46 -10 -60 -3 -14 -7 -38 -10 -55
-3 -16 -7 -41 -10 -55 -3 -14 -8 -38 -11 -55 -3 -16 -16 -75 -30 -129 -28
-117 -29 -129 -8 -147 36 -30 72 -12 80 39 1 8 6 21 10 30 9 21 6 11 49 177
19 77 37 151 40 165 2 14 7 40 10 59 3 19 7 37 9 40 2 3 7 29 10 56 4 28 9 57
11 65 2 8 6 35 9 60 3 25 8 54 10 65 2 11 7 49 11 85 3 36 8 72 10 80 2 8 6
47 10 85 9 106 17 180 20 183 1 1 22 -30 45 -70 72 -121 189 -294 274 -403 80
-102 223 -282 236 -296 8 -9 29 -33 47 -55 17 -21 39 -49 50 -60 10 -12 40
-47 67 -78 177 -205 466 -494 626 -626 30 -25 57 -47 60 -50 3 -3 37 -29 75
-57 39 -29 77 -58 85 -65 21 -19 200 -138 206 -138 3 0 18 -9 33 -19 49 -35
241 -131 262 -131 34 0 71 45 67 82 -3 29 -15 41 -108 105 -58 40 -112 79
-121 88 -9 8 -21 15 -27 15 -5 0 -12 3 -14 8 -1 4 -55 46 -118 93 -64 47 -122
92 -130 100 -8 8 -35 30 -60 49 -25 19 -50 39 -56 45 -6 5 -33 29 -60 51 -86
73 -97 83 -198 177 -274 253 -537 543 -722 792 -32 44 -61 82 -65 85 -3 3 -30
41 -60 85 -30 44 -57 82 -61 83 -5 2 -8 7 -8 12 0 5 -17 35 -39 67 -48 74
-163 273 -219 381 l-44 83 7 137 c4 75 8 164 10 197 27 442 22 1200 -9 1520
-4 33 -9 89 -12 125 -14 185 -21 253 -29 290 -4 14 -8 35 -11 48 -19 95 -75
192 -124 217 -36 19 -86 18 -125 -2z m65 -183 c22 -12 26 -27 44 -187 11 -90
19 -149 22 -167 2 -10 6 -46 8 -80 3 -33 8 -86 11 -116 6 -62 12 -154 21 -320
7 -128 7 -756 0 -920 -3 -58 -5 -136 -6 -175 -1 -65 -2 -68 -14 -45 -8 14 -28
68 -46 120 -17 52 -34 102 -37 110 -4 8 -7 20 -8 25 -2 6 -13 44 -25 85 -23
77 -48 170 -55 205 -2 11 -13 61 -24 110 -78 352 -90 815 -27 1073 4 12 8 32
11 44 16 75 58 186 85 225 18 26 16 26 40 13z"/>
<path d="M2737 4896 c-149 -93 -228 -158 -377 -306 -142 -142 -238 -255 -325
-385 -22 -33 -42 -62 -45 -65 -11 -11 -110 -180 -154 -262 -60 -113 -132 -290
-152 -373 -1 -5 -9 -29 -18 -52 -8 -24 -13 -43 -11 -43 2 0 -2 -18 -10 -40 -8
-22 -14 -43 -14 -45 0 -3 -4 -29 -10 -58 -17 -87 -26 -139 -36 -232 -6 -52 -7
-244 -1 -272 6 -28 -7 -42 -80 -91 -112 -75 -214 -196 -214 -256 0 -48 49 -84
85 -61 11 7 45 36 75 66 75 73 167 146 174 138 1 -2 15 -31 31 -63 59 -124
194 -226 339 -256 57 -12 146 -15 176 -7 8 3 30 8 47 12 18 4 38 14 44 21 6 8
18 14 25 14 20 0 125 108 155 160 107 184 95 403 -25 495 -54 41 -113 57 -208
57 -47 0 -96 -5 -107 -12 -12 -6 -21 -8 -21 -6 0 12 -151 -49 -239 -96 l-93
-50 5 124 c3 67 8 134 11 148 2 14 7 46 11 73 13 107 79 334 132 457 37 84 99
209 130 258 18 29 33 55 33 58 0 6 101 156 111 164 3 3 19 25 36 50 17 25 41
56 53 70 12 14 39 45 59 70 42 53 47 58 172 186 100 103 217 213 332 309 54
46 67 63 67 86 0 33 -31 69 -58 69 -11 0 -58 -24 -105 -54z m-455 -2097 c83
-34 76 -231 -12 -319 -53 -53 -100 -71 -176 -69 -126 4 -248 91 -298 212 l-15
37 102 48 c215 102 317 125 399 91z"/>
</g>
</svg>
