<?xml version="1.0" encoding="UTF-8"?>
<svg id="Ebene_1" data-name="Ebene 1" xmlns="http://www.w3.org/2000/svg" xmlns:xlink="http://www.w3.org/1999/xlink" viewBox="0 0 89.86 26.02">
  <defs>
    <style>
      .cls-1 {
        clip-path: url(#clippath);
      }

      .cls-2 {
        fill: none;
      }

      .cls-2, .cls-3 {
        stroke-width: 0px;
      }

      .cls-3 {
        fill: #fff;
      }
    </style>
    <clipPath id="clippath">
      <rect class="cls-2" width="89.86" height="26.02"/>
    </clipPath>
  </defs>
  <g class="cls-1">
    <path class="cls-3" d="M0,14.53V4.2c0-.33.17-.52.49-.52h.44c.31,0,.49.19.49.52v9.59h5.03c.31,0,.52.18.52.49v.26c0,.31-.21.49-.52.49H.49c-.32,0-.49-.18-.49-.49"/>
    <path class="cls-3" d="M7.37,6.85c-.14.21-.35.28-.51.16l-.07-.05c-.16-.12-.12-.32-.02-.49.28-.4.84-1.13.87-1.57-.5-.11-.87-.54-.87-1.05,0-.59.51-1.06,1.1-1.06.65,0,1.08.45,1.1,1.13.02.75-.23,1.17-1.61,2.93"/>
    <path class="cls-3" d="M13.28,2.36c-.19-.3-.07-.49.19-.65L15.92.11c.33-.21.56-.1.7.12l.24.37c.19.31.05.49-.23.63l-2.58,1.29c-.33.16-.51.21-.66-.02l-.11-.14ZM11.26,14.5V4.2c0-.33.19-.52.52-.52h6.58c.31,0,.51.17.51.49v.26c0,.32-.19.49-.51.49h-5.69v3.77h4.42c.32,0,.52.17.52.49v.24c0,.33-.21.49-.52.49h-4.42v3.88h5.69c.31,0,.52.17.52.49v.26c0,.31-.21.49-.52.49h-6.58c-.33,0-.52-.21-.52-.52"/>
    <path class="cls-3" d="M23.53,14.5V4.91h-3.23c-.31,0-.51-.17-.51-.49v-.26c0-.31.19-.49.51-.49h7.87c.33,0,.52.17.52.49v.26c0,.32-.19.49-.52.49h-3.23v9.59c0,.31-.16.52-.47.52h-.45c-.31,0-.49-.21-.49-.52"/>
    <path class="cls-3" d="M35.96,11.32l-2.48-5.52-2.5,5.52h4.98ZM38.61,15.02h-.68c-.31,0-.38-.18-.54-.49l-.91-2.03h-6.02l-.92,2.03c-.14.31-.21.49-.52.49h-.65c-.31,0-.45-.18-.3-.49l4.96-10.61c.07-.18.19-.33.42-.33h.12c.23,0,.35.16.43.33l4.91,10.61c.16.31.02.49-.3.49"/>
    <path class="cls-3" d="M47.86,11.78c0-1.22-.98-2.04-2.46-2.04h-3.05v4.07h2.74c1.82,0,2.78-.68,2.78-2.02M42.35,4.88v3.75h2.58c1.47,0,2.29-.68,2.29-1.87s-.78-1.88-2.29-1.88h-2.58ZM49.29,11.88c0,1.89-1.66,3.14-4.15,3.14h-3.68c-.33,0-.52-.21-.52-.52V4.2c0-.33.19-.52.52-.52h3.39c2.48,0,3.81,1.05,3.81,3.02,0,1.14-.65,1.9-1.47,2.36,1.26.44,2.11,1.45,2.11,2.83"/>
    <path class="cls-3" d="M51.75,14.53V4.2c0-.33.17-.52.49-.52h.43c.32,0,.49.19.49.52v9.59h5.03c.31,0,.52.18.52.49v.26c0,.31-.21.49-.52.49h-5.95c-.32,0-.49-.18-.49-.49"/>
    <path class="cls-3" d="M60.62,14.5V4.2c0-.33.19-.52.52-.52h6.58c.32,0,.51.17.51.49v.26c0,.32-.19.49-.51.49h-5.69v3.77h4.42c.32,0,.52.17.52.49v.24c0,.33-.21.49-.52.49h-4.42v3.88h5.69c.32,0,.52.17.52.49v.26c0,.31-.21.49-.52.49h-6.58c-.33,0-.52-.21-.52-.52"/>
    <path class="cls-3" d="M80.92,11.37c0-1.54-1.19-2.65-2.78-2.65s-2.78,1.12-2.78,2.65,1.17,2.64,2.78,2.64,2.78-1.13,2.78-2.64M73.95,11.25c-.04-2.74,1.78-4.98,4.1-7.61.26-.28.66-.33.87-.14l.23.19c.24.21.24.49-.02.77-1.08,1.15-2.5,2.85-3.11,3.89h.02c.58-.61,1.54-.87,2.37-.87,2.22,0,3.91,1.62,3.91,3.88s-1.76,3.88-4.19,3.88-4.14-1.54-4.19-3.98"/>
    <path class="cls-3" d="M89.85,4.04v.14c0,.12-.04.24-.12.44l-4.33,9.92c-.14.33-.3.49-.63.49h-.49c-.3,0-.52-.23-.37-.58l4.15-9.5h-5.2c-.31,0-.49-.16-.49-.49v-.3c0-.31.18-.49.49-.49h6.49c.31,0,.49.16.49.37"/>
    <path class="cls-3" d="M2.35,24.94c1.07,0,1.79-.71,1.79-1.84s-.72-1.84-1.79-1.84h-1.18v3.68h1.18ZM0,25.57v-4.94c0-.22.13-.34.34-.34h2.04c1.8,0,2.95,1.12,2.95,2.8s-1.15,2.82-2.95,2.82H.34c-.22,0-.34-.13-.34-.34"/>
    <path class="cls-3" d="M9.59,24.47v-.32c-.22-.1-.6-.25-.99-.25-.54,0-.91.28-.91.69,0,.39.34.65.85.65.56,0,1.06-.35,1.06-.77M10.64,23.29v2.28c0,.22-.11.34-.32.34h-.28c-.21,0-.33-.13-.33-.34v-.15c-.37.36-.87.6-1.43.6-1.01,0-1.69-.56-1.69-1.39,0-.88.74-1.47,1.85-1.47.41,0,.79.1,1.12.23v-.23c0-.5-.36-.81-.96-.81-.42,0-.8.13-1.11.34-.17.1-.32.07-.43-.12l-.08-.14c-.13-.22-.06-.38.1-.48.5-.34,1.06-.47,1.6-.47,1.09,0,1.95.54,1.95,1.81"/>
    <path class="cls-3" d="M12.24,25.37c-.16-.15-.2-.29-.02-.48l.15-.17c.16-.18.32-.16.48-.02.29.26.68.44,1.09.44.37,0,.61-.16.61-.41,0-.34-.36-.46-.75-.61-.71-.24-1.46-.51-1.46-1.34,0-.79.65-1.29,1.64-1.29.55,0,1.13.19,1.47.51.16.14.2.28.02.49l-.12.15c-.13.15-.3.17-.48.05-.29-.23-.55-.34-.89-.34s-.55.15-.55.36c0,.28.38.39.89.59.73.29,1.32.6,1.32,1.41s-.69,1.32-1.7,1.32c-.68,0-1.35-.27-1.71-.66"/>
    <path class="cls-3" d="M19.62,23.1c0-1.66,1.29-2.91,2.97-2.91.73,0,1.35.23,1.86.63.17.14.17.34.01.48l-.27.25c-.16.15-.33.13-.51.01-.31-.21-.67-.34-1.06-.34-1.03,0-1.82.81-1.82,1.88,0,1.12.81,1.9,1.85,1.9.59,0,.93-.21,1.17-.34v-1.04h-1.05c-.22,0-.34-.11-.34-.33v-.22c0-.21.12-.33.34-.33h1.76c.22,0,.34.13.34.34v1.88c0,.23-.12.35-.33.49-.32.19-.94.56-1.96.56-1.67,0-2.96-1.26-2.96-2.91"/>
    <path class="cls-3" d="M29.4,21.9l-.11.43c-.06.22-.2.24-.34.2-.12-.04-.26-.07-.38-.07-.57,0-.89.43-.89,1.06v2.06c0,.21-.11.34-.32.34h-.5c-.21,0-.33-.13-.33-.34v-3.7c0-.21.12-.33.33-.33h.33c.21,0,.33.12.33.33v.27c.28-.41.66-.66,1.16-.66.22,0,.37.03.54.08.13.04.25.11.19.35"/>
    <path class="cls-3" d="M32.88,20.09c0-.41.33-.72.73-.72s.72.32.72.72-.33.73-.72.73-.73-.33-.73-.73M31.01,20.09c0-.41.33-.72.73-.72s.73.32.73.72-.32.73-.73.73-.73-.33-.73-.73M34.7,21.88v3.7c0,.21-.12.34-.33.34h-.31c-.21,0-.33-.13-.33-.34v-.23c-.27.41-.7.68-1.32.68-1.06,0-1.75-.72-1.75-1.78v-2.37c0-.21.11-.33.32-.33h.5c.2,0,.33.12.33.33v2.24c0,.55.33.92.85.92s.89-.37.89-.94v-2.21c0-.21.11-.33.32-.33h.5c.21,0,.33.12.33.33"/>
    <path class="cls-3" d="M40.69,23.33v2.25c0,.21-.11.34-.32.34h-.5c-.21,0-.33-.13-.33-.34v-2.16c0-.57-.34-.95-.91-.95s-.94.38-.94.95v2.16c0,.21-.11.34-.32.34h-.5c-.21,0-.33-.13-.33-.34v-3.7c0-.21.12-.33.33-.33h.33c.21,0,.33.12.33.33v.29c.29-.41.74-.69,1.38-.69,1.07,0,1.78.74,1.78,1.85"/>
    <path class="cls-3" d="M43.35,23.3h2.21c-.04-.27-.15-.49-.31-.66-.19-.21-.47-.32-.8-.32-.6,0-1.02.38-1.11.98M44.67,25.15c.33,0,.72-.09,1.1-.39.16-.12.28-.15.42,0l.21.21c.17.16.1.29,0,.4-.44.45-1.21.66-1.82.66-1.3,0-2.35-.89-2.35-2.27,0-1.3.96-2.27,2.26-2.27.66,0,1.21.23,1.58.61.41.4.63.97.63,1.57,0,.24-.1.35-.35.35h-2.99c.07.74.66,1.14,1.32,1.14"/>
    <path class="cls-3" d="M50.63,23.1c0-1.67,1.32-2.91,3.01-2.91.86,0,1.62.34,2.15.89.15.16.15.34-.02.47l-.31.27c-.16.13-.31.11-.48-.02-.35-.34-.81-.55-1.34-.55-1.03,0-1.83.78-1.83,1.86s.81,1.86,1.83,1.86c.53,0,.99-.21,1.34-.55.16-.15.31-.16.48-.03l.31.26c.16.14.17.32.02.47-.53.56-1.29.9-2.16.9-1.69,0-3.01-1.25-3.01-2.91"/>
    <path class="cls-3" d="M60.11,24.47v-.32c-.22-.1-.6-.25-.99-.25-.54,0-.91.28-.91.69,0,.39.34.65.85.65.56,0,1.06-.35,1.06-.77M61.15,23.29v2.28c0,.22-.11.34-.32.34h-.28c-.21,0-.33-.13-.33-.34v-.15c-.37.36-.87.6-1.43.6-1.01,0-1.69-.56-1.69-1.39,0-.88.74-1.47,1.85-1.47.41,0,.79.1,1.12.23v-.23c0-.5-.36-.81-.96-.81-.42,0-.81.13-1.11.34-.17.1-.32.07-.43-.12l-.08-.14c-.13-.22-.06-.38.1-.48.5-.34,1.06-.47,1.6-.47,1.09,0,1.95.54,1.95,1.81"/>
    <path class="cls-3" d="M65.94,20.24l-.1.26c-.09.21-.2.23-.39.16-.11-.05-.23-.08-.36-.08-.38,0-.72.24-.72.78v.18h.92c.21,0,.33.11.33.32v.22c0,.21-.12.33-.33.33h-.92v3.16c0,.21-.11.34-.32.34h-.5c-.21,0-.33-.13-.33-.34v-3.16h-.41c-.21,0-.33-.12-.33-.33v-.22c0-.21.12-.32.33-.32h.41v-.18c0-1.17.87-1.68,1.74-1.68.29,0,.6.06.81.16.16.07.28.16.17.4"/>
    <path class="cls-3" d="M67.7,20.63c-.1-.16-.04-.28.12-.39l1.33-.86c.18-.13.3-.09.39.04l.21.38c.11.18.05.29-.11.38l-1.45.68c-.17.08-.3.08-.37-.04l-.11-.2ZM67.6,23.3h2.21c-.04-.27-.15-.49-.31-.66-.19-.21-.47-.32-.79-.32-.6,0-1.02.38-1.11.98M68.92,25.15c.33,0,.72-.09,1.1-.39.16-.12.28-.15.42,0l.21.21c.17.16.1.29,0,.4-.44.45-1.21.66-1.82.66-1.29,0-2.35-.89-2.35-2.27,0-1.3.96-2.27,2.26-2.27.66,0,1.21.23,1.58.61.41.4.63.97.63,1.57,0,.24-.1.35-.36.35h-2.99c.07.74.66,1.14,1.32,1.14"/>
  </g>
</svg>