<?xml version="1.0" encoding="UTF-8"?><svg id="Ebene_2" xmlns="http://www.w3.org/2000/svg" viewBox="0 0 71.7 79.17"><g id="Ebene_1-2"><path d="m34.57,23.11c-1.39-.1-2.86.62-4.08,1.35-.03-.56,0-1.13.05-1.67.59-6.15,4.53-10.85,9.12-14.63.43-.36,0-1.18-.52-.88-3.51,1.97-6.45,5.59-8.2,9.15-.98,2-2.16,5.85-1.76,8.83-.97.6-2.12,1.41-2.39,2.42-.14.53.47.96.86.49.49-.58,1.13-1.11,1.84-1.59.52,1.46,1.6,2.53,3.55,2.74,3.63.38,5.34-5.94,1.54-6.21Zm.66,3.19c-.34,1.79-2.37,1.96-3.56.92-.45-.4-.74-.88-.93-1.4.68-.37,1.38-.68,2.01-.92,1.41-.54,2.88-.7,2.48,1.4Z" style="fill:#fff;"/><path d="m62.83,8.58c-3.61.36-7.34,1.69-10.81,3.05.42-1.93.75-3.86.94-5.79.45-4.61-3.54-6.43-7.47-5.67-5.16.99-9.98,3.59-13.59,7.4-.36.38.28,1.01.65.64,3.43-3.43,7.97-5.79,12.74-6.73,1.49-.29,2.94-.54,4.35.2,3.27,1.72,1.67,6.06,1,8.89-.14.59-.29,1.18-.44,1.77-.1.04-.21.08-.31.12-4.19,1.66-8.2,3.67-12.06,6-.48.29,0,1.12.5.85,3.71-2.01,7.53-3.83,11.45-5.39-1.19,4.47-2.62,8.87-4.29,13.18-.94,2.43-1.95,4.84-3.05,7.2-.91,1.96-2.26,3.9-2.86,5.97-.2.67.55,1.08,1.03.59,1.78-1.82,2.78-4.7,3.81-6.98,1.35-3,2.55-6.08,3.64-9.19,1.29-3.69,2.6-7.56,3.56-11.48,3.79-1.34,7.73-2.18,11.48-3.57.61-.23.31-1.13-.3-1.07Z" style="fill:#fff;"/><path d="m21.05,27.88c.05-.82.09-1.64.13-2.45.16-3.05.21-6.11.12-9.17-.05-1.49-.13-2.98-.27-4.46-.12-1.2-.13-2.72-.74-3.8-.82-1.47-2.06-.59-2.64.56-1.26,2.49-1.24,5.56-.99,8.27.38,4.11,1.44,8.17,3.19,11.9-.18,3.81-.46,7.72-1.45,11.33-.13.47.56.78.72.3,1-3.08,1.46-6.38,1.73-9.66.71,1.28,1.52,2.52,2.41,3.68,3.71,4.84,8.52,10.39,14.15,13.01.6.28,1.15-.64.58-1.02-6.84-4.52-13.3-10.97-16.95-18.48Zm-3.28-14.06c.05-1.26.22-2.51.63-3.7.12-.34.28-1.05.57-1.27.52-.4.54,1.07.61,1.57.72,4.95.63,10.06.42,15.05-.13-.34-.26-.69-.39-1.03-1.19-3.39-1.98-6.99-1.83-10.6Z" style="fill:#fff;"/><path d="m24.62,5.2c2.6,1.47,3.04,3.72,2.8,6.5-.05.53.76.81.94.25,1.02-3.14-.41-6.25-3.41-7.55-.53-.23-.8.54-.33.8Z" style="fill:#fff;"/><path d="m0,70v-8.25c0-.26.14-.42.39-.42h.35c.25,0,.39.15.39.42v7.65h4.01c.25,0,.42.14.42.39v.21c0,.25-.17.39-.42.39H.39c-.25,0-.39-.14-.39-.39Z" style="fill:#fff;"/><path d="m5.88,63.87c-.11.17-.28.22-.4.12l-.06-.04c-.12-.1-.1-.25-.01-.39.22-.32.67-.91.7-1.25-.4-.08-.7-.43-.7-.84,0-.47.4-.85.88-.85.52,0,.86.36.88.91.01.6-.18.93-1.28,2.34Z" style="fill:#fff;"/><path d="m8.98,69.97v-8.22c0-.26.15-.42.42-.42h5.25c.25,0,.4.14.4.39v.21c0,.25-.15.39-.4.39h-4.54v3.01h3.52c.25,0,.42.14.42.39v.2c0,.26-.17.39-.42.39h-3.52v3.09h4.54c.25,0,.42.14.42.39v.21c0,.25-.17.39-.42.39h-5.25c-.26,0-.42-.17-.42-.42Zm1.62-9.68c-.15-.24-.06-.39.15-.51l1.95-1.28c.26-.17.45-.08.56.1l.19.29c.15.25.04.39-.18.5l-2.06,1.03c-.26.12-.4.17-.53-.01l-.08-.11Z" style="fill:#fff;"/><path d="m18.78,69.97v-7.65h-2.58c-.25,0-.4-.14-.4-.39v-.21c0-.25.15-.39.4-.39h6.28c.27,0,.42.14.42.39v.21c0,.25-.15.39-.42.39h-2.58v7.65c0,.25-.12.42-.38.42h-.36c-.25,0-.39-.17-.39-.42Z" style="fill:#fff;"/><path d="m30.81,70.39h-.54c-.25,0-.31-.14-.43-.39l-.72-1.62h-4.81l-.74,1.62c-.11.25-.17.39-.42.39h-.52c-.25,0-.36-.14-.24-.39l3.96-8.47c.06-.14.15-.26.33-.26h.1c.18,0,.28.12.35.26l3.92,8.47c.12.25.01.39-.24.39Zm-2.12-2.95l-1.98-4.4-1.99,4.4h3.97Z" style="fill:#fff;"/><path d="m39.33,67.88c0,1.5-1.32,2.51-3.32,2.51h-2.94c-.26,0-.42-.17-.42-.42v-8.22c0-.26.15-.42.42-.42h2.7c1.98,0,3.04.84,3.04,2.41,0,.91-.52,1.52-1.17,1.88,1,.35,1.69,1.16,1.69,2.26Zm-5.54-5.59v3h2.06c1.17,0,1.83-.54,1.83-1.49s-.63-1.5-1.83-1.5h-2.06Zm4.4,5.5c0-.98-.78-1.63-1.96-1.63h-2.44v3.25h2.19c1.45,0,2.22-.54,2.22-1.62Z" style="fill:#fff;"/><path d="m41.3,70v-8.25c0-.26.14-.42.39-.42h.35c.25,0,.39.15.39.42v7.65h4.01c.25,0,.42.14.42.39v.21c0,.25-.17.39-.42.39h-4.75c-.25,0-.39-.14-.39-.39Z" style="fill:#fff;"/><path d="m48.37,69.97v-8.22c0-.26.15-.42.42-.42h5.25c.25,0,.4.14.4.39v.21c0,.25-.15.39-.4.39h-4.54v3.01h3.52c.25,0,.42.14.42.39v.2c0,.26-.17.39-.42.39h-3.52v3.09h4.54c.25,0,.42.14.42.39v.21c0,.25-.17.39-.42.39h-5.25c-.26,0-.42-.17-.42-.42Z" style="fill:#fff;"/><path d="m59.01,67.38c-.03-2.19,1.42-3.97,3.27-6.07.21-.22.53-.26.7-.11l.18.15c.2.17.2.39-.01.61-.86.92-1.99,2.27-2.48,3.11h.01c.46-.49,1.23-.7,1.89-.7,1.77,0,3.12,1.3,3.12,3.09s-1.41,3.09-3.34,3.09-3.3-1.23-3.34-3.18Zm5.56.1c0-1.23-.95-2.12-2.21-2.12s-2.22.89-2.22,2.12.93,2.1,2.22,2.1,2.21-.91,2.21-2.1Z" style="fill:#fff;"/><path d="m71.7,61.63v.11c0,.1-.03.2-.1.35l-3.46,7.91c-.11.26-.24.39-.5.39h-.39c-.24,0-.42-.18-.29-.46l3.32-7.58h-4.15c-.25,0-.39-.13-.39-.39v-.24c0-.25.14-.39.39-.39h5.18c.25,0,.39.13.39.29Z" style="fill:#fff;"/><path d="m7.2,78.81v-3.94c0-.17.1-.27.28-.27h1.63c1.43,0,2.35.9,2.35,2.24s-.92,2.25-2.35,2.25h-1.63c-.17,0-.28-.1-.28-.28Zm1.88-.5c.86,0,1.43-.57,1.43-1.47s-.57-1.47-1.43-1.47h-.95v2.94h.95Z" style="fill:#fff;"/><path d="m15.69,76.99v1.82c0,.17-.09.27-.25.27h-.22c-.17,0-.26-.1-.26-.27v-.12c-.3.29-.7.48-1.14.48-.81,0-1.35-.45-1.35-1.11,0-.7.59-1.17,1.47-1.17.32,0,.63.08.9.19v-.19c0-.4-.29-.65-.76-.65-.33,0-.64.1-.88.27-.14.08-.26.05-.35-.1l-.06-.11c-.1-.18-.05-.3.08-.38.4-.27.85-.38,1.28-.38.87,0,1.56.43,1.56,1.45Zm-.83.94v-.26c-.17-.08-.48-.2-.79-.2-.43,0-.72.22-.72.55,0,.31.27.52.68.52.45,0,.84-.28.84-.61Z" style="fill:#fff;"/><path d="m16.97,78.65c-.12-.12-.16-.23-.02-.39l.12-.13c.13-.14.25-.13.38-.02.23.21.54.35.87.35.3,0,.49-.13.49-.33,0-.27-.29-.37-.6-.49-.57-.19-1.17-.41-1.17-1.07,0-.63.52-1.03,1.31-1.03.44,0,.9.15,1.17.41.12.11.16.22.01.39l-.1.12c-.1.12-.24.14-.38.04-.23-.19-.44-.27-.71-.27s-.44.12-.44.29c0,.22.3.31.71.47.58.23,1.05.48,1.05,1.12s-.55,1.06-1.36,1.06c-.54,0-1.08-.21-1.37-.52Z" style="fill:#fff;"/><path d="m22.86,76.84c0-1.32,1.03-2.32,2.37-2.32.58,0,1.08.19,1.48.5.14.11.14.27,0,.39l-.21.2c-.13.12-.26.1-.41,0-.25-.17-.54-.27-.85-.27-.82,0-1.46.65-1.46,1.5s.65,1.52,1.47,1.52c.47,0,.74-.17.93-.27v-.83h-.83c-.17,0-.27-.09-.27-.26v-.18c0-.17.1-.26.27-.26h1.41c.17,0,.27.1.27.27v1.5c0,.18-.1.28-.26.39-.26.15-.75.45-1.57.45-1.33,0-2.36-1.01-2.36-2.32Z" style="fill:#fff;"/><path d="m30.67,75.88l-.09.34c-.05.17-.16.19-.28.16-.1-.04-.21-.06-.3-.06-.46,0-.71.34-.71.84v1.64c0,.17-.09.27-.25.27h-.4c-.17,0-.26-.1-.26-.27v-2.95c0-.17.1-.26.26-.26h.26c.17,0,.26.1.26.26v.21c.22-.33.53-.53.93-.53.17,0,.29.02.43.06.1.04.2.09.15.28Z" style="fill:#fff;"/><path d="m34.89,75.86v2.95c0,.17-.1.27-.26.27h-.25c-.16,0-.26-.1-.26-.27v-.19c-.21.32-.56.54-1.05.54-.84,0-1.4-.57-1.4-1.42v-1.89c0-.17.09-.26.26-.26h.4c.16,0,.26.1.26.26v1.79c0,.43.26.73.68.73s.71-.3.71-.75v-1.77c0-.17.09-.26.26-.26h.4c.16,0,.26.1.26.26Zm-2.95-1.42c0-.32.26-.58.58-.58s.58.25.58.58-.25.58-.58.58-.58-.26-.58-.58Zm1.49,0c0-.32.26-.58.59-.58s.58.25.58.58-.26.58-.58.58-.59-.26-.59-.58Z" style="fill:#fff;"/><path d="m39.67,77.02v1.79c0,.17-.09.27-.26.27h-.4c-.16,0-.26-.1-.26-.27v-1.72c0-.46-.28-.76-.72-.76s-.75.3-.75.76v1.72c0,.17-.09.27-.25.27h-.4c-.17,0-.26-.1-.26-.27v-2.95c0-.17.1-.26.26-.26h.26c.17,0,.26.1.26.26v.23c.23-.33.59-.55,1.1-.55.86,0,1.42.59,1.42,1.48Z" style="fill:#fff;"/><path d="m42.85,78.47c.27,0,.57-.08.88-.31.12-.1.22-.12.33,0l.16.17c.13.13.08.23,0,.32-.35.36-.96.52-1.46.52-1.03,0-1.88-.71-1.88-1.81,0-1.04.77-1.81,1.81-1.81.52,0,.96.19,1.26.48.32.32.5.77.5,1.26,0,.19-.08.28-.28.28h-2.39c.06.59.53.91,1.06.91Zm-1.05-1.48h1.77c-.04-.21-.12-.39-.25-.52-.15-.17-.37-.25-.63-.25-.48,0-.81.3-.88.78Z" style="fill:#fff;"/><path d="m47.6,76.84c0-1.33,1.05-2.32,2.41-2.32.69,0,1.3.27,1.72.71.12.12.12.27-.01.37l-.25.21c-.13.1-.25.09-.38-.02-.28-.27-.65-.43-1.07-.43-.82,0-1.46.62-1.46,1.48s.64,1.48,1.46,1.48c.42,0,.79-.17,1.07-.43.13-.12.25-.13.38-.02l.25.21c.13.11.14.25.01.37-.42.45-1.03.72-1.72.72-1.35,0-2.4-.99-2.4-2.32Z" style="fill:#fff;"/><path d="m56,76.99v1.82c0,.17-.09.27-.25.27h-.22c-.17,0-.26-.1-.26-.27v-.12c-.3.29-.7.48-1.14.48-.81,0-1.35-.45-1.35-1.11,0-.7.59-1.17,1.47-1.17.32,0,.63.08.9.19v-.19c0-.4-.29-.65-.76-.65-.33,0-.64.1-.88.27-.14.08-.26.05-.35-.1l-.06-.11c-.1-.18-.05-.3.08-.38.4-.27.85-.38,1.28-.38.87,0,1.56.43,1.56,1.45Zm-.83.94v-.26c-.17-.08-.48-.2-.79-.2-.43,0-.72.22-.72.55,0,.31.27.52.68.52.45,0,.84-.28.84-.61Z" style="fill:#fff;"/><path d="m59.82,74.56l-.08.21c-.07.17-.16.19-.31.13-.09-.04-.19-.06-.28-.06-.3,0-.57.19-.57.62v.14h.73c.16,0,.26.09.26.26v.17c0,.17-.1.26-.26.26h-.73v2.52c0,.17-.09.27-.25.27h-.4c-.17,0-.26-.1-.26-.27v-2.52h-.32c-.17,0-.26-.1-.26-.26v-.17c0-.17.1-.26.26-.26h.32v-.14c0-.93.7-1.34,1.38-1.34.23,0,.48.05.64.12.13.06.22.13.14.32Z" style="fill:#fff;"/><path d="m62.2,78.47c.27,0,.57-.08.88-.31.12-.1.22-.12.33,0l.16.17c.13.13.08.23,0,.32-.35.36-.96.52-1.46.52-1.03,0-1.88-.71-1.88-1.81,0-1.04.77-1.81,1.81-1.81.52,0,.96.19,1.26.48.32.32.5.77.5,1.26,0,.19-.08.28-.28.28h-2.39c.06.59.53.91,1.06.91Zm-1.05-1.48h1.77c-.04-.21-.12-.39-.25-.52-.15-.17-.37-.25-.63-.25-.48,0-.81.3-.88.78Zm.08-2.13c-.08-.12-.04-.22.1-.31l1.06-.69c.14-.1.24-.07.31.03l.17.3c.09.14.04.23-.09.3l-1.16.54c-.13.06-.24.06-.3-.03l-.09-.16Z" style="fill:#fff;"/></g></svg>