<?xml version="1.0" encoding="utf-8"?>
<!-- Generator: Adobe Illustrator 28.3.0, SVG Export Plug-In . SVG Version: 6.00 Build 0)  -->
<svg version="1.1" id="Ebene_1" xmlns="http://www.w3.org/2000/svg" xmlns:xlink="http://www.w3.org/1999/xlink" x="0px" y="0px"
	 viewBox="0 0 16 16" style="enable-background:new 0 0 16 16;" xml:space="preserve">
<style type="text/css">
	.st0{clip-path:url(#SVGID_00000150079137787300229030000015388960251323881861_);fill:#D9BA8C;}
</style>
<g>
	<defs>
		<rect id="SVGID_1_" width="16" height="16"/>
	</defs>
	<clipPath id="SVGID_00000009575840051588295290000011837406096115451068_">
		<use xlink:href="#SVGID_1_"  style="overflow:visible;"/>
	</clipPath>
	<path style="clip-path:url(#SVGID_00000009575840051588295290000011837406096115451068_);fill:#D9BA8C;" d="M15.95,11.3
		c-0.04,0.85-0.17,1.43-0.37,1.94c-0.2,0.53-0.48,0.97-0.92,1.42c-0.45,0.45-0.89,0.72-1.42,0.92c-0.51,0.2-1.09,0.33-1.94,0.37
		C10.45,15.99,10.17,16,8,16s-2.44-0.01-3.3-0.05c-0.85-0.04-1.43-0.17-1.94-0.37c-0.53-0.2-0.97-0.48-1.42-0.92
		c-0.45-0.44-0.72-0.89-0.92-1.42c-0.2-0.51-0.33-1.09-0.37-1.94C0.01,10.44,0,10.17,0,8s0.01-2.45,0.05-3.3
		c0.04-0.85,0.17-1.43,0.37-1.94c0.2-0.53,0.48-0.97,0.92-1.42C1.79,0.9,2.23,0.62,2.76,0.42c0.51-0.2,1.09-0.33,1.94-0.37
		C5.56,0.01,5.83,0,8,0s2.45,0.01,3.3,0.05c0.85,0.04,1.43,0.17,1.94,0.37c0.53,0.2,0.97,0.48,1.42,0.92
		c0.45,0.45,0.72,0.89,0.92,1.42c0.2,0.51,0.33,1.09,0.37,1.94C15.99,5.55,16,5.83,16,8S15.99,10.44,15.95,11.3 M8,5.33
		C6.53,5.33,5.33,6.53,5.33,8c0,1.47,1.19,2.67,2.67,2.67c1.47,0,2.67-1.19,2.67-2.67C10.67,6.53,9.47,5.33,8,5.33 M12.27,4.69
		c-0.53,0-0.96-0.43-0.96-0.96c0-0.53,0.43-0.96,0.96-0.96c0.53,0,0.96,0.43,0.96,0.96C13.23,4.26,12.8,4.69,12.27,4.69 M8,12.11
		c-2.27,0-4.11-1.84-4.11-4.11c0-2.27,1.84-4.11,4.11-4.11c2.27,0,4.11,1.84,4.11,4.11C12.11,10.27,10.27,12.11,8,12.11 M14.24,3.28
		c-0.14-0.37-0.32-0.64-0.6-0.92c-0.28-0.28-0.55-0.45-0.92-0.6c-0.28-0.11-0.7-0.24-1.49-0.28C10.39,1.45,10.14,1.44,8,1.44
		c-2.14,0-2.39,0.01-3.23,0.04c-0.78,0.04-1.2,0.17-1.49,0.28c-0.37,0.14-0.64,0.32-0.92,0.6c-0.28,0.28-0.45,0.55-0.6,0.92
		c-0.11,0.28-0.24,0.7-0.28,1.49C1.45,5.61,1.44,5.86,1.44,8c0,2.14,0.01,2.39,0.05,3.23c0.03,0.78,0.17,1.2,0.28,1.49
		c0.14,0.37,0.32,0.64,0.6,0.92c0.28,0.28,0.55,0.45,0.92,0.6c0.28,0.11,0.7,0.24,1.49,0.28c0.84,0.04,1.1,0.05,3.23,0.05
		c2.14,0,2.39-0.01,3.23-0.05c0.78-0.03,1.2-0.17,1.49-0.28c0.37-0.14,0.64-0.32,0.92-0.6c0.28-0.28,0.45-0.55,0.6-0.92
		c0.11-0.28,0.24-0.7,0.28-1.49c0.04-0.84,0.04-1.1,0.04-3.23c0-2.14-0.01-2.39-0.04-3.23C14.48,3.99,14.35,3.56,14.24,3.28"/>
</g>
</svg>
