<?xml version="1.0" encoding="UTF-8"?><svg id="Ebene_2" xmlns="http://www.w3.org/2000/svg" viewBox="0 0 95.61 96.62"><g id="Ebene_1-2"><path d="m36.77,47.09c-2.83-.2-5.82,1.26-8.32,2.74-.07-1.14,0-2.3.1-3.39,1.19-12.54,9.24-22.1,18.58-29.8.88-.72.02-2.4-1.07-1.8-7.15,4.01-13.14,11.38-16.7,18.64-2,4.08-4.4,11.93-3.59,18-1.97,1.23-4.32,2.87-4.88,4.92-.29,1.08.97,1.95,1.76,1.01.99-1.18,2.3-2.27,3.75-3.24,1.05,2.98,3.25,5.16,7.23,5.57,7.4.78,10.87-12.1,3.14-12.65Zm1.34,6.5c-.69,3.64-4.83,4-7.25,1.88-.92-.81-1.51-1.79-1.89-2.85,1.4-.75,2.81-1.39,4.09-1.88,2.87-1.11,5.86-1.43,5.05,2.86Z" style="fill:#fff;"/><path d="m94.32,17.47c-7.35.73-14.95,3.45-22.01,6.21.86-3.93,1.53-7.87,1.92-11.79.92-9.4-7.22-13.1-15.21-11.56-10.51,2.03-20.33,7.31-27.68,15.08-.73.77.57,2.07,1.33,1.31,7-6.98,16.25-11.79,25.95-13.71,3.03-.6,6-1.11,8.87.4,6.66,3.51,3.4,12.34,2.04,18.1-.28,1.21-.58,2.41-.89,3.61-.21.08-.42.17-.63.25-8.53,3.38-16.72,7.48-24.56,12.23-.97.59.02,2.28,1.03,1.73,7.57-4.1,15.34-7.8,23.33-10.99-2.42,9.1-5.34,18.07-8.73,26.85-1.91,4.95-3.97,9.85-6.22,14.67-1.86,3.98-4.59,7.95-5.82,12.17-.4,1.37,1.12,2.21,2.1,1.2,3.62-3.7,5.67-9.57,7.76-14.21,2.75-6.12,5.19-12.38,7.41-18.71,2.64-7.52,5.3-15.41,7.26-23.38,7.71-2.73,15.74-4.43,23.38-7.28,1.24-.46.64-2.3-.61-2.18Z" style="fill:#fff;"/><path d="m9.22,56.79c.1-1.68.19-3.35.27-5,.32-6.22.44-12.46.24-18.69-.09-3.03-.26-6.07-.56-9.09-.24-2.45-.27-5.54-1.51-7.75-1.68-2.99-4.2-1.2-5.38,1.13C-.27,22.48-.23,28.74.27,34.25c.77,8.36,2.93,16.65,6.5,24.25-.36,7.75-.94,15.73-2.95,23.07-.26.96,1.14,1.59,1.46.6,2.04-6.27,2.98-12.99,3.53-19.68,1.46,2.61,3.09,5.13,4.91,7.51,7.55,9.86,17.36,21.16,28.82,26.51,1.22.57,2.33-1.31,1.19-2.07-13.93-9.22-27.09-22.34-34.52-37.65ZM2.54,28.15c.1-2.56.44-5.11,1.27-7.55.24-.7.57-2.14,1.15-2.59,1.06-.82,1.1,2.19,1.24,3.19,1.46,10.09,1.28,20.5.85,30.65-.27-.7-.54-1.4-.79-2.11-2.43-6.92-4.02-14.24-3.73-21.6Z" style="fill:#fff;"/><path d="m16.5,10.59c5.31,3,6.18,7.57,5.69,13.24-.09,1.08,1.55,1.65,1.92.52,2.07-6.39-.83-12.73-6.94-15.39-1.07-.47-1.64,1.09-.68,1.63Z" style="fill:#fff;"/></g></svg>